<?xml version="1.0" encoding="UTF-8"?> <svg xmlns="http://www.w3.org/2000/svg" width="649.89" height="328.05" viewBox="0 0 649.89 328.05"><title>Heineken-2019</title><path d="M276.44,112l-22.22,68.28a.27.27,0,0,0,.11.32,3.94,3.94,0,0,0,.34.28,2.91,2.91,0,0,0,.36.23.27.27,0,0,0,.34,0l58.08-42.23,58.07,42.23a.27.27,0,0,0,.34,0s.19-.11.37-.24a3.56,3.56,0,0,0,.33-.27.27.27,0,0,0,.11-.32L350.45,112l58.11-42.18a.28.28,0,0,0,.11-.32s-.05-.21-.12-.42a3.46,3.46,0,0,0-.15-.41.29.29,0,0,0-.27-.2l-71.82,0L314.15.22a.27.27,0,0,0-.27-.2s-.22,0-.44,0L313,0a.27.27,0,0,0-.27.2L290.58,68.53l-71.81,0a.29.29,0,0,0-.28.2,3.46,3.46,0,0,0-.15.41c-.07.21-.12.42-.12.42a.28.28,0,0,0,.11.32Z" style="fill:#fff"></path><path d="M161.85,301.93c-4.16,4.17-9.57,8.32-14.89,10-5,1.62-19.33,2.87-23.54-8.95-.91-2.56-.17-3.35,2.14-4,3.46-1,12.35-3.64,21.74-7.17a112.48,112.48,0,0,0,18.5-8.67c4.26-2.8,4.89-6.73,3-11-6-13.44-19.51-27.51-42-23.23-17.87,3.41-30.67,19.5-30.67,37.9,0,22.79,13.73,36.12,31.21,40.25,16.16,3.85,35.16-4,43.28-17.16,3.23-5.07-5.85-11.09-8.79-8M121.38,284c-1.75-4.84-.36-19.63,7.8-22.42,8.57-2.94,13.83,1.48,16.39,10.12,1,3.2.75,6.58-.3,7.85-1.52,1.84-4.24,2.95-6.67,3.76l-6.42,2.13c-6.31,2.15-9.32,2.58-10.8-1.44" style="fill:#fff"></path><path d="M371.18,301.93c-4.15,4.17-9.57,8.32-14.89,10-5,1.62-19.33,2.87-23.54-8.95-.91-2.56-.17-3.35,2.15-4,3.45-1,12.34-3.64,21.73-7.17a112.48,112.48,0,0,0,18.5-8.67c4.26-2.8,4.89-6.73,3-11-6-13.44-19.51-27.51-42-23.23-17.87,3.41-30.67,19.5-30.67,37.9,0,22.79,13.74,36.12,31.21,40.25,16.16,3.85,35.16-4,43.28-17.16,3.23-5.07-5.85-11.09-8.79-8M330.71,284c-1-2.9-1-9.34,1-14.66,1.33-3.57,3.31-6.36,6.79-7.76a11,11,0,0,1,9.89.37c3,1.73,5.14,5.14,6.5,9.75,1,3.2.75,6.58-.3,7.85-1.52,1.84-3.89,2.77-6.67,3.76s-5.25,1.8-6.42,2.17c-6.35,2-9.32,2.54-10.8-1.48" style="fill:#fff"></path><path d="M530.76,301.93c-4.16,4.17-9.57,8.32-14.89,10-5,1.62-19.33,2.87-23.54-8.95-.91-2.56-.17-3.35,2.14-4,3.46-1,12.35-3.64,21.74-7.17a112.48,112.48,0,0,0,18.5-8.67c4.26-2.8,4.89-6.73,3-11-6-13.44-19.51-27.51-42-23.23-17.87,3.41-30.67,19.5-30.67,37.9,0,22.79,13.73,36.12,31.21,40.25,16.15,3.85,35.15-4,43.28-17.16,3.23-5.07-5.85-11.09-8.79-8M490.29,284c-1.05-2.9-1-9.34,1-14.66,1.33-3.57,3.31-6.36,6.79-7.76A11,11,0,0,1,508,262c3,1.73,5.14,5.14,6.5,9.75.95,3.2.74,6.58-.3,7.85-1.52,1.84-3.89,2.77-6.67,3.76s-5.25,1.8-6.42,2.17c-6.35,2-9.32,2.54-10.8-1.48" style="fill:#fff"></path><path d="M60,306.26c0,3.05-1,6.4-3.32,7.45L51.61,316a2,2,0,0,0-1.17,2.1,4.74,4.74,0,0,0,.07.76l.6,5.78c.27,1.58,1.34,1.83,3.43,1.83H91.46c2.08,0,3.16-.25,3.42-1.83l.6-5.78a4.74,4.74,0,0,0,.07-.76,2,2,0,0,0-1.17-2.1l-5.09-2.31c-2.36-1-3.32-4.4-3.32-7.45v-64c0-3.05,1-6.4,3.32-7.45l5.09-2.31a2,2,0,0,0,1.17-2.1,4.53,4.53,0,0,0-.07-.75l-.6-4.35c-.26-1.57-1.34-1.83-3.42-1.83H56.26c-2.08,0-3.16.26-3.42,1.83l-.6,4.35a4.53,4.53,0,0,0-.07.75,2,2,0,0,0,1.17,2.1l4.15,2.31c2.38,1.35,2.54,4.4,2.54,7.45v17.84a2.24,2.24,0,0,1-2.25,2.24h-20a2.24,2.24,0,0,1-2.25-2.24V242.3c0-3.05.16-6.1,2.53-7.45l4.16-2.31a2,2,0,0,0,1.17-2.1,4.53,4.53,0,0,0-.07-.75l-.6-4.35c-.27-1.57-1.35-1.83-3.43-1.83H4.1c-2.09,0-3.16.26-3.43,1.83l-.6,4.35a4.53,4.53,0,0,0-.07.75,2,2,0,0,0,1.17,2.1l5.1,2.31c2.35,1.05,3.31,4.4,3.31,7.45v64c0,3.05-1,6.4-3.31,7.45L1.17,316A2,2,0,0,0,0,318.12a4.74,4.74,0,0,0,.07.76l.6,5.78c.27,1.58,1.34,1.83,3.43,1.83H41c2.09,0,3.16-.25,3.43-1.83l.6-5.78a4.74,4.74,0,0,0,.07-.76,2,2,0,0,0-1.17-2.1l-5.09-2.31c-2.36-1-3.32-4.4-3.32-7.45v-26A2.25,2.25,0,0,1,37.78,278h20A2.25,2.25,0,0,1,60,280.26Z" style="fill:#fff"></path><path d="M205.54,234.28a13.33,13.33,0,1,1-13.32-12.86,13.1,13.1,0,0,1,13.32,12.86" style="fill:#fff"></path><path d="M177.64,326.49c-2,0-3-.24-3.29-1.75l-.57-5.77a3.89,3.89,0,0,1,0-.73,2,2,0,0,1,1.09-2l4-2.22c2.2-1.06,3.18-4.22,3.18-7.15V270.35c0-3.06-.52-7-3.2-8.3l-2.54-1.47a2,2,0,0,1-1.17-2.1,5.73,5.73,0,0,1,.06-.75l.61-4.35c.26-1.57,1.34-1.83,3.42-1.83H204.1a2.25,2.25,0,0,1,2.25,2.25v53.06c0,2.93,1,6.09,3.18,7.15l4,2.22a2,2,0,0,1,1.09,2,3.89,3.89,0,0,1,0,.73l-.57,5.77c-.26,1.51-1.29,1.75-3.29,1.75Z" style="fill:#fff"></path><path d="M253.12,255.44l3.93-1.91c5-2.34,14.77-6.54,22.85-4,7,2.24,13.05,7.32,13.05,20.66v40.41c0,1.73.07,2.43.87,2.87,1.07.59,2.95-1.17,4.73-2.09s2.81.16,3.92,1.39c1,1.07,2.12,2.58,1.18,4.56-3,6.25-9.67,9.85-17.5,9.85-7.39,0-16.8-4.25-16.8-15.33V273c0-6-4.32-8-7.67-7.59-5.06.62-8.74,4.85-8.74,12.4v29.07c0,2.93,1,6.09,3.18,7.16l4,2.21a2,2,0,0,1,1.1,2,5,5,0,0,1,0,.73l-.58,5.77c-.26,1.51-1.29,1.75-3.29,1.75h-33c-2,0-3-.24-3.29-1.75l-.58-5.77a5,5,0,0,1,0-.73,2,2,0,0,1,1.1-2l4-2.21c2.21-1.07,3.19-4.23,3.19-7.16V270.35c0-3.06-.53-7-3.21-8.3l-2.54-1.47a2,2,0,0,1-1.17-2.1,4.53,4.53,0,0,1,.07-.75l.6-4.35c.27-1.57,1.34-1.83,3.43-1.83h23.49a3.13,3.13,0,0,1,3.1,2.25Z" style="fill:#fff"></path><path d="M575.56,255.44l3.93-1.91c5-2.34,14.77-6.54,22.85-4,7,2.24,13,7.32,13,20.66v40.41c0,1.73.08,2.43.88,2.87,1.07.59,2.94-1.17,4.73-2.09s2.8.16,3.91,1.39c1,1.07,2.13,2.58,1.18,4.56-3,6.25-9.67,9.85-17.49,9.85-7.39,0-16.81-4.25-16.81-15.33V273c0-6-4.31-8-7.66-7.59-5.06.62-8.74,4.85-8.74,12.4v29.07c0,2.93,1,6.09,3.18,7.16l4,2.21a2,2,0,0,1,1.09,2,3.89,3.89,0,0,1,0,.73l-.57,5.77c-.26,1.51-1.29,1.75-3.29,1.75H546.68c-2,0-3-.24-3.29-1.75l-.57-5.77a3.89,3.89,0,0,1,0-.73,2,2,0,0,1,1.09-2l4-2.21c2.2-1.07,3.18-4.23,3.18-7.16V270.35c0-3.06-.52-7-3.2-8.3l-2.54-1.47a2,2,0,0,1-1.17-2.1,4.53,4.53,0,0,1,.07-.75l.6-4.35c.26-1.57,1.34-1.83,3.43-1.83H571.7a3.12,3.12,0,0,1,3.09,2.25Z" style="fill:#fff"></path><path d="M455.91,307.87A16.38,16.38,0,0,0,462,314l4,2.21a2,2,0,0,1,1.09,2,3.89,3.89,0,0,1,0,.73l-.57,5.77c-.26,1.51-1.29,1.75-3.29,1.75H443.22c-3.41,0-3.67-1-5.21-3.77l-16.72-30.45-6.28,6v8.57c0,2.93,1.39,6,3.66,7.16l4,2.21a2,2,0,0,1,1.1,2,4,4,0,0,1-.05.73l-.57,5.77c-.26,1.51-1.29,1.75-3.29,1.75h-33c-2,0-3-.24-3.29-1.75l-.58-5.77a3.89,3.89,0,0,1,0-.73,2,2,0,0,1,1.1-2l4-2.21c2.21-1.07,3.19-4.23,3.19-7.16V241.48c0-2.93-.91-6-3.19-7.15l-4-2.21a2,2,0,0,1-1.1-2,3.83,3.83,0,0,1,0-.72l.58-4.11c.25-1.51,1.29-1.76,3.29-1.76h24a4.26,4.26,0,0,1,4.26,4.26V277.4l10.64-9.61c1.52-1.31,4-3.49,5-4.45s1.17-2.41-.22-3l-3.75-1.7a1.8,1.8,0,0,1-1.07-1.92,4.82,4.82,0,0,1,.06-.69l.55-5.27c.24-1.44,1.22-1.67,3.12-1.67H458c1.9,0,2.88.23,3.12,1.67l.55,5.27a6.91,6.91,0,0,1,.06.69c.06,1.14-1.28,1.69-2.12,2.07a20,20,0,0,0-3.88,1.65,39.17,39.17,0,0,0-6.33,4.87L438.32,276Z" style="fill:#fff"></path><path d="M610.27,231.36h0a19.81,19.81,0,1,0,19.81-19.79,19.82,19.82,0,0,0-19.81,19.79M630.08,247h0a15.58,15.58,0,1,1,15.59-15.59A15.58,15.58,0,0,1,630.08,247" style="fill:#fff"></path><path d="M621.92,241h4.89v-8.34s.3,0,2,.11c2.45.11,3.73.56,4.45,2.84A41.58,41.58,0,0,0,635,241c2.16,0,2.77,0,5,0a21,21,0,0,1-1.67-5.2,6.25,6.25,0,0,0-2.92-4.82c1.59-.57,3.19-2.54,3.19-5.42,0-4.54-4.72-5.94-6.46-5.94H621.92Zm8.86-12.58h-3.95v-4.87h3.45c1.5,0,3.3.65,3.3,2.32a2.57,2.57,0,0,1-2.8,2.55" style="fill:#fff"></path><path d="M447.69,166.44l0-.64h-4.26c-.16,3.82,2.16,6.38,6,6.38,4.2,0,6.75-2.56,6.75-6.78,0-2.43-1-4.77-3.51-5.39v-.08c2.22-.89,2.81-3.21,2.81-5.36,0-3.65-2.12-6-5.8-6-4.18,0-5.49,3.05-5.36,6.74h4v-.47c0-1,.21-2.38,1.52-2.38s1.56,1.32,1.56,2.33c0,2.54-1,3-3.5,3v4c2.58-.09,3.44.62,3.44,3.19,0,1.35-.12,3.23-2,3.23a1.71,1.71,0,0,1-1.71-1.78" style="fill:#fff"></path><polygon points="438.73 148.94 426.38 148.94 426.38 152.87 432.52 152.87 425.4 171.81 430.12 171.81 438.73 148.94" style="fill:#fff"></polygon><path d="M415.12,159.49v-.06a4.79,4.79,0,0,0,3.14-4.84,5.65,5.65,0,0,0-5.71-6c-3.5,0-5.73,2.64-5.73,6a4.83,4.83,0,0,0,3.11,4.82v.08c-2.82.95-4,3.1-4,6a6.56,6.56,0,1,0,13.12,0c0-2.87-1.08-5.14-4-6m-2.67-7.36c1.24,0,1.4,1.59,1.4,2.44s0,2.56-1.4,2.56c-1.13,0-1.26-1.75-1.26-2.59s.18-2.41,1.26-2.41m.06,16.09c-1.57,0-1.9-2.08-1.9-3.23s.33-3.32,1.87-3.32,2,2.17,2,3.32-.43,3.23-2,3.23" style="fill:#fff"></path><polygon points="398.04 148.94 391.48 148.94 391.48 152.87 393.68 152.87 393.68 171.81 398.04 171.81 398.04 148.94" style="fill:#fff"></polygon><polygon points="185.54 148.94 175.54 148.94 175.54 171.81 185.59 171.81 185.59 167.55 180.48 167.55 180.48 162.39 184.92 162.39 184.92 158.16 180.48 158.16 180.48 153.18 185.54 153.18 185.54 148.94" style="fill:#fff"></polygon><path d="M233.19,166.42a2.86,2.86,0,0,0-2.91,2.85,2.9,2.9,0,0,0,2.91,2.91,2.85,2.85,0,0,0,2.82-2.91,2.81,2.81,0,0,0-2.82-2.85" style="fill:#fff"></path><polygon points="226.92 148.94 214.15 148.94 214.15 153.18 218.03 153.18 218.03 171.81 223.02 171.81 223.02 153.18 226.92 153.18 226.92 148.94" style="fill:#fff"></polygon><path d="M205.54,154.09v-4.41a9.67,9.67,0,0,0-4.44-1.08c-4.26,0-6.54,3.07-6.54,6.71,0,3.3,1.74,5,4.61,6.76,1.38,1,2.94,1.6,2.94,3.33a2.59,2.59,0,0,1-2.89,2.51,6.51,6.51,0,0,1-3.74-1.23V171a8.46,8.46,0,0,0,4.27,1.16c4.64,0,7.22-3.09,7.22-7.15,0-6.19-7.55-6.42-7.55-10.17a2.23,2.23,0,0,1,2.48-2.25,6,6,0,0,1,3.64,1.48" style="fill:#fff"></path></svg> 