<svg id="Layer_1" data-name="Layer 1" xmlns="http://www.w3.org/2000/svg" width="93" height="73" viewBox="0 0 93 73"><defs><style>.cls-1,.cls-2{fill:#fff;}.cls-2{fill-rule:evenodd;}</style></defs><path class="cls-1" d="M46.68,56.88s0-.09-.1-.08h-.16a.09.09,0,0,0-.09.09l-.18.72a.12.12,0,0,0,0,.14l.13.17s0,0,.09,0h.19a.1.1,0,0,0,.1,0l.17-.22a.13.13,0,0,0,0-.15Z"/><path class="cls-1" d="M42.58,39.69a1,1,0,1,0-1-1A1,1,0,0,0,42.58,39.69Z"/><path class="cls-1" d="M50.48,39.09a1.64,1.64,0,0,0,0-1,.7.7,0,0,0-.67-.5H49V39.8h.79S50.32,39.82,50.48,39.09Z"/><path class="cls-1" d="M40.52,56.51c0-.23,0-.25-.38-.25h-.62v.62h.62A.34.34,0,0,0,40.52,56.51Z"/><path class="cls-1" d="M39.91,57.23h-.39v.59l.73.29c.53.16.55-.2.44-.46A1,1,0,0,0,39.91,57.23Z"/><path class="cls-1" d="M43.25,56.35h-.61v.86h.79c.25,0,.37-.06.37-.43S43.42,56.35,43.25,56.35Z"/><path class="cls-1" d="M46.07,46c.65,0,1.06-.57,1-1.52,0-.8-.36-1.43-1-1.44s-1,.61-1,1.45S45.45,46,46.07,46Z"/><path class="cls-1" d="M46.14,34.75a13,13,0,1,0,13,13A13.06,13.06,0,0,0,46.14,34.75Zm-1,1.52h.76v3.35h1.49v.73H45.15Zm.94,5.94A2,2,0,0,1,48,44.43a2.06,2.06,0,0,1-1.94,2.32c-1.06,0-1.9-.86-1.9-2.31A2,2,0,0,1,46.1,42.21Zm1.72,5.15v.84H44.3v-.84ZM42.59,37.08A1.64,1.64,0,1,1,41,38.72,1.64,1.64,0,0,1,42.59,37.08ZM41,59,39,58a.27.27,0,0,1-.06-.16V56a.12.12,0,0,1,.09-.11h1.3c.47,0,1-.05,1,.66a.56.56,0,0,1-.27.57,1.1,1.1,0,0,1,.39.81C41.38,58.29,41.51,59,41,59Zm0-4.72c-.19-.42-3.27-6.16-3.27-6.16-.11-.32-.21,0-.21,0V52.4s0,.82.53,1c.33.1.53.08.51.34a6.65,6.65,0,0,0,0,.77H35.35l0-.6s-.06-.24.29-.35c.57-.18.76-.45.83-1.78s.06-6.05.06-6.05.15-2.48-1.27-2.61c0,0,0,0,0-.19a7.5,7.5,0,0,0,0-.83h3l2.74,6s.38.7.44,0,.05-4,.05-4A1.17,1.17,0,0,0,40.72,43l-.27,0c-.16,0-.26-.08-.26-.22s0-.39,0-.39-.09-.22.32-.19c.19,0,2.93,0,2.93,0a.22.22,0,0,1,.25.25v.39s0,.28-.39.32c0,0-.76.25-.83,1.46s-.07,9.87-.07,9.87l-.88.06S41.05,54.45,40.94,54.23Zm3.59,5.68a3.57,3.57,0,0,1-.33.15s-.14.08-.17-.05l-.54-1.95h0s-.14-.33-.36-.33h-.48l.05,1.45H42V55.81h1.48a1.18,1.18,0,0,1,1.08.85A1,1,0,0,1,44,57.75a15.67,15.67,0,0,0,.65,2C44.74,59.87,44.65,59.84,44.53,59.91Zm3.59-.27a4,4,0,0,1-.46.12s-.16-.1-.19-.17S47,58.25,47,58.25h0a4.74,4.74,0,0,1-.32.54h-.35L46,58.28l-.14.37c-.12.29-.31.91-.31.91s-.06.21-.18.21l-.45,0s-.16,0-.08-.3,1.13-3.36,1.13-3.36.07-.16.15-.18h.74a.4.4,0,0,1,.24.24c.1.22,1.12,3.3,1.12,3.3S48.24,59.59,48.12,59.64Zm.29-22.57h1.45a1.32,1.32,0,0,1,1.1.74,2,2,0,0,1,.12,1.42,1.32,1.32,0,0,1-1.21,1.11H48.41Zm2.65,21.58c0,.23-.11.27-.11.27a2.51,2.51,0,0,0-.39.19.19.19,0,0,1-.24,0s-.59-1.08-.76-1.31-.25-.09-.25-.09,0,1.16,0,1.45-.16.31-.16.31a1.31,1.31,0,0,1-.39.08c-.18,0-.12-.44-.12-.44l0-3a.29.29,0,0,1,.12-.23,1.44,1.44,0,0,1,.41,0,.19.19,0,0,1,.14.17s.68,1.23.86,1.51.18-.05.18-.05,0-1.14,0-1.33a.32.32,0,0,1,.12-.27,1.34,1.34,0,0,0,.31,0,.28.28,0,0,1,.25.12S51,58.42,51.06,58.65Zm2.77-1.42a.64.64,0,0,1-.42.64s-1,.54-1.46.72-.37-.11-.37-.11l0-2.28c0-.2.21-.25.21-.25s1.07,0,1.44,0a.66.66,0,0,1,.51.38A3.51,3.51,0,0,1,53.83,57.23Zm1.75-5c.61-.79.13.19.13.19-.26.51-2.63,4.31-5.92,1.76-2.18-1.69.12-5.29.28-5.54a28,28,0,0,1,4.31-4.43c.31-.21-.14-.1-.27,0a5.19,5.19,0,0,1-2,.86c-.67,0-1.53,0-1.53,0a1,1,0,0,0-.76.48l-.16.35s0,0-.26.06a.65.65,0,0,1-.48-.2,1.69,1.69,0,0,1,.13-.42c.16-.41,1.18-3.2,1.18-3.2s.07-.33.21-.34.52.17.44.41.15.25.15.25H57.3c.33,0,.27,0,.06.26s-4,5.12-4.33,7.83S55,53,55.58,52.22Z"/><path class="cls-1" d="M46.14,32.67A15.13,15.13,0,1,0,61.27,47.8,15.12,15.12,0,0,0,46.14,32.67Zm0,29.1a14,14,0,1,1,14-14A14,14,0,0,1,46.14,61.77Z"/><path class="cls-1" d="M53.19,56.6a.36.36,0,0,0-.32-.19h-.56a.29.29,0,0,0-.27.28v.91a.22.22,0,0,0,.31.21,5,5,0,0,0,.72-.33.47.47,0,0,0,.21-.41l0-.33A.31.31,0,0,0,53.19,56.6Z"/><path class="cls-2" d="M41.29,10.07l-2.37.1c-.6,0-1,.08-1,.24,0,.32.57,0,.62,1.39l.62,15.49c0,.81-.61.76-.6,1.07,0,.07.1.12.37.1l3.16-.13c2.92-.11,5.42-3.81,5.14-10.84C47.07,12.48,44.34,10,41.29,10.07Zm2.78,5.15.27,6.88c.06,1.46-.47,5-1.62,5-.42,0-.66.08-.67-.29l-.59-15.39c0-.25.13-.3.54-.32C43.49,11.05,44,13.41,44.07,15.22Zm6.29-.83c0,.19.41.36.37.77a6.31,6.31,0,0,1-.35,1.21l-3.19,9.87c-.59,1.86-1.1,1.56-1.12,1.78s0,.15.16.15l2.4,0c.08,0,.14,0,.15-.1,0-.28-.88-.08-.53-1.17L49,24.59l2.41.23.21,2.32c.1,1.21-.43.88-.46,1.17s.08.18.28.19l3.21.23c.16,0,.3,0,.31-.14s-.37,0-.51-1.24l-1-11.83c-.07-.78-.09-.92-.25-.93l-2.68-.26C50.44,14.32,50.37,14.31,50.36,14.39ZM51,19.88l.33,3.89-2-.2,1.2-3.73C50.79,19,50.94,19.18,51,19.88Zm6.5-4.77c-.06.23.66.54.52,1.21L55.64,27.75c-.22.92-.38.59-.46.87,0,.1.1.14.22.15l1.67.27c.14,0,.2,0,.23-.12s-.65,0-.29-1.72l1.17-5.65c0-.2.18-.17.22,0l1.37,8a.19.19,0,0,0,.16.19l1.44.47c.08,0,.18,0,.19,0s-.12,0,0-.37l3.3-11.68c.31-1.18.67-.79.72-1s-.07-.17-.3-.25l-1.36-.45c-.28-.1-.42-.11-.45,0s.41.13.16,1L61.79,24c-.09.32-.31-.12-.45-.78l-1.36-7c-.1-.52-.11-.61-.3-.66L57.86,15C57.66,15,57.53,15,57.5,15.11Zm-24,.27-2.32.54c-.11,0-.16,0-.14.14s.37.1.45.43a1.57,1.57,0,0,1-.09.82l-1.3,3.47c-.07.16-.21.37-.27.38s-.13-.07-.15-.15l-.86-3.69c-.16-.69.48-.65.42-.93a.1.1,0,0,0-.12-.08l-3.57.84c-.13,0-.17.07-.15.15.06.25.5,0,.68.8l2.66,11.39c.18.76-.44.8-.37,1.1,0,.12.1.11.31.07l3.52-1c.08,0,.08-.08.06-.14-.05-.23-.62,0-.72-.43L30.24,23.4c0-.15.06-.41.22-.45s.24.19.32.37l2.56,5.86c.11.21.2.3.52.25L37,28.94c.12,0,.15-.06.12-.18-.07-.3-.77,0-1.1-.67l-2.6-6c-.1-.2-.18-.24-.32-.21-.39.1-1.9.58-2.08-.2a9.38,9.38,0,0,1,.73-2.24l.76-2c.67-2,1.23-1.79,1.18-2S33.59,15.36,33.52,15.38Zm33.16,2.11c-.13.35.73.28.19,1.83l-3.38,9.62c-.55,1.55-1.18,1-1.3,1.31,0,.12.06.22.23.28L66,31.67c.16.06.3,0,.34-.07.12-.35-.73-.28-.18-1.84l3.35-9.53c.55-1.55,1.17-1,1.29-1.31,0-.12,0-.22-.22-.27L67,17.42C66.85,17.36,66.72,17.38,66.68,17.49Zm-43.1.05c-.16.06-.17.5-.43.58-.47.15-1.52.29-2,.46-2.39.78-2.05,4.76-1.28,7.15,1.55,4.73,4.27,6.76,6.45,6.05a2.63,2.63,0,0,0,1.48-3.27c-.25-.76-.65-1.56-1.5-1.69-.17-.05-.31,0-.11.29a4.16,4.16,0,0,1,.63,1.22c.15.43.26,2.46-.65,2.76-1.08.36-2-1.88-2.31-2.82l-2.18-6.7c-.22-.66-.77-2.24.45-2.64s2.18,1.38,2.35,1.32.1,0,.07-.14l-.79-2.43C23.7,17.61,23.65,17.52,23.58,17.54ZM72.1,19.16c-.15.34.71.35,0,1.85l-4.24,9.27c-.68,1.5-1.25,1.07-1.4,1.4,0,.11,0,.22.2.29l5.17,2.14,1.25-1.67a.21.21,0,0,0,0-.33c-.44.24-1.84.86-2.4.6s-.66-.42-.48-.82L72.39,27a.63.63,0,0,1,.91-.32c.71.32-.19,2.05.3,2.27.13.06.26-.07.37-.31l1.6-3.5c.08-.19.11-.43,0-.49-.43-.2-1,1.5-1.8,1.14a.67.67,0,0,1-.36-.95l1.21-2.61c.5-1.09.58-1.25,1-1a2.5,2.5,0,0,1,1.23,2.29c-.06.46.24.77.36.26l.62-2.21-5.4-2.45C72.3,19.05,72.16,19.05,72.1,19.16ZM6.58,20.7c-1.2.75-2.22,1.54-3.34,2.23-.14.1-.14.35.07.29.5-.11.85.14,1.18.67l6.43,10.22c.66,1.06,2,3.31.33,4.35-1.4.87-2.62,0-3.27-1S7.33,35,8,34.61c.29-.18.39-.1.61-.23-.14-.22-.17-.46-.28-.64a1.53,1.53,0,0,0-2.28-.39c-1.22.76-1.27,3-.34,4.48a4.42,4.42,0,0,0,6.13,1.42c3.35-2.09,2.3-5.58,1.05-7.59L7,22.28c-.48-.76-.53-.91-.29-1.38C6.8,20.77,6.78,20.58,6.58,20.7Zm79.16.56a1.25,1.25,0,0,0-1.14,1.35,1.27,1.27,0,0,0,.49.9c0,.51-.75.25-.71.71,0,.13.11.17.42.15.71-.06,2.4-.65,2.29-2A1.25,1.25,0,0,0,85.74,21.26Zm-6.51,1.13c-.18.31.67.4-.14,1.83L74,33.15c-.72,1.26-1.42.68-1.6,1-.06.11,0,.23.17.32l5,2.76,1.71-1.63c.08-.07.14-.22,0-.28s-2,.79-2.82.32c-.45-.26-.51-.41-.07-1.19l5.06-8.86c.81-1.43,1.32-.74,1.5-1.06.06-.1,0-.22-.17-.31l-3.23-1.83C79.43,22.29,79.29,22.28,79.23,22.39ZM83.74,28c-1.62,2.7-.36,8.63-1,9.74s-1.23,1.24-1.9.84a2,2,0,0,1-.81-3,.23.23,0,0,0,0-.36c-.07,0-.16,0-.26.17l-1.62,2.08s-.22.23-.11.29.67-.17,1,0,.48,1.09,1.7,1.83c1.79,1.07,3.43-.24,4.09-1.35,2-3.39.14-7.95,1.31-9.89a1.09,1.09,0,0,1,1.5-.47,2.69,2.69,0,0,1,.85,2.61c-.08.32-.35.91-.24,1s.25-.11.4-.31l1.27-1.72c.12-.15.19-.32.1-.37s-.13.14-.54-.11-.89-1.51-1.83-2.07C86.2,26.09,84.24,27.13,83.74,28Zm-72-5.32c-.31.16-.39.64.14.54.25,0,.47.2.67,1l2.85,11a1.36,1.36,0,0,1-.28,1.28c-.08.09,0,.29.1.24.46-.24,2-1.26,2.27-1.37s0-.22-.16-.18c-.58.15-.72-.16-.88-.75l-.56-2.21,2-1.09,1.29,1.59a.92.92,0,0,1,0,1.31c-.22.15-.06.41.16.3,1.32-.66,2.42-1.34,3.79-2,.21-.1.06-.36-.12-.34-.39,0-.52-.06-.94-.57l-7.94-9.81C13.58,21.76,12.56,22.23,11.73,22.64ZM15,27.34l2.29,2.84-1.66.8-.92-3.51c-.05-.19-.14-.41-.06-.45S14.89,27.27,15,27.34Z"/><path class="cls-1" d="M83.38,40.94v.37h.24a.4.4,0,0,0,.22-.05.15.15,0,0,0,.08-.14.14.14,0,0,0-.07-.13.48.48,0,0,0-.24-.05Zm0,1.05h-.19V40.78h.42a.76.76,0,0,1,.31,0,.33.33,0,0,1,.15.11.29.29,0,0,1,.05.18.32.32,0,0,1-.09.23.44.44,0,0,1-.25.11l.13.09a1.16,1.16,0,0,1,.15.21l.15.24H84l-.11-.19a1.49,1.49,0,0,0-.18-.27.28.28,0,0,0-.18-.06h-.12Zm.26-1.54a.94.94,0,0,0-.67.27.93.93,0,0,0,0,1.33.94.94,0,0,0,.67.27.93.93,0,0,0,.66-1.6A.91.91,0,0,0,83.64,40.45Zm0-.19a1.09,1.09,0,0,1,.56.15,1.27,1.27,0,0,1,.42.41,1.13,1.13,0,0,1,.15.57,1.06,1.06,0,0,1-.15.55,1,1,0,0,1-.42.41,1.14,1.14,0,0,1-1.13,0,1,1,0,0,1-.41-.4,1.08,1.08,0,0,1,0-1.13,1.24,1.24,0,0,1,.41-.41A1.13,1.13,0,0,1,83.64,40.26Z"/></svg>