<?xml version="1.0" encoding="UTF-8"?>
<svg xmlns="http://www.w3.org/2000/svg" id="Layer_1" width="300" height="56.03" viewBox="0 0 300 56.03">
  <g id="_">
    <polygon points="232.61 53.61 223.76 53.61 223.76 14.92 211.59 14.92 211.59 7.85 244.78 7.85 244.78 14.92 232.61 14.92 232.61 53.61" style="fill:#fff;"></polygon>
    <path d="M257.04,15.79h-7.64V7.85h7.64v7.95Zm0,37.82h-7.64V19.75h7.64V53.61Z" style="fill:#fff;"></path>
    <polygon points="300 53.61 290.38 53.61 280.25 35.57 269.53 53.61 261.85 53.61 276.33 29.77 263.89 7.85 273.48 7.85 281.93 23.07 290.88 7.85 298.59 7.85 285.85 28.73 300 53.61" style="fill:#fff;"></polygon>
    <path d="M139.25,53.52h-11.65l-18.75-32.69V53.52h-11.3V2.48h12.15l18.25,32.06V2.48h11.3V53.52Zm-10.67-1.69h8.97V4.17h-7.92V40.93L108.71,4.17h-9.47V51.83h7.92V14.48l21.43,37.35Z" style="fill:#fff;"></path>
    <path d="M157.8,53.52h-11.94V2.55h36.88V12.91h-24.94v9.66h21.86v10.26h-21.86v20.69Zm-10.25-1.69h8.55V31.14h21.86v-6.88h-21.86V11.22h24.94V4.24h-33.5V51.83Z" style="fill:#fff;"></path>
    <path d="M213.29,53.52h-12.07V12.91h-14.83V2.48h41.67V12.91h-14.77V53.52Zm-10.38-1.69h8.69V11.22h14.77V4.17h-38.28v7.05h14.83V51.83Z" style="fill:#fff;"></path>
    <path d="M69.4,0l8.11,14.49-.03,.05-23.02,41.49h-16.04l-.03-.05-6.96-12.7-7.18,12.74H8.28L0,41.64l.25-.45L15.55,13.88,23.27,0h16.07l.03,.05,7.08,12.96L53.52,0h15.89Zm-7.88,40.01l13.81-24.89h-13.26l-7.19,12.9,6.63,11.99Zm13.61-26.49l-6.67-11.92h-13.11l6.72,11.92h13.05Zm-14.44,.8l-6.69-11.87-7.55,13.9L38.4,1.6h-13.29l28.89,51.99,6.62-11.93-7.55-13.64,7.63-13.69Zm-8.06,40.11L23.74,2.44l-6.59,11.83,7.54,13.72-7.7,13.66,6.78,11.95,7.67-13.61,7.91,14.44h13.27ZM22.88,27.98l-6.63-12.07L2.31,40.79l13.31,.06,7.26-12.87Zm-.46,26.45l-6.8-11.98-13.35-.06,6.93,12.04h13.21Z" style="fill:#fff;"></path>
  </g>
</svg>
