<?xml version="1.0" encoding="UTF-8"?> <svg xmlns="http://www.w3.org/2000/svg" overflow="scroll" baseProfile="tiny" viewBox="0 0 150 70" xml:space="preserve"> <path d="m23 50.8c-0.7 0-1.3 0.1-1.8 0.3s-0.9 0.4-1.3 0.7h-0.1s-0.1 0-0.1-0.1l-0.2-0.2c0-0.1-0.1-0.1 0-0.1 0 0 0-0.1 0.1-0.1 0.4-0.3 0.9-0.6 1.5-0.8s1.2-0.3 1.9-0.3h1.1c0.3 0 0.7 0.1 1.2 0.2 0.2 0 0.3 0.1 0.4 0.2s0.1 0.2 0.1 0.4v6.2c0 0.2 0 0.3-0.1 0.5 0 0.1-0.2 0.2-0.4 0.3-0.4 0.2-0.8 0.4-1.2 0.5l-1.2 0.3c-0.4 0.1-0.8 0.1-1.1 0.1h-0.9c-0.9 0-1.8-0.1-2.5-0.4-0.8-0.3-1.4-0.8-1.9-1.4s-1-1.4-1.3-2.4-0.4-2.2-0.4-3.5 0.2-2.5 0.5-3.5 0.8-1.9 1.4-2.6 1.3-1.2 2.1-1.6 1.7-0.5 2.6-0.5c0.6 0 1.3 0.1 2 0.2s1.4 0.4 2.2 0.8c0.1 0 0.1 0.1 0.1 0.2l-0.2 0.3c0 0.1-0.1 0.1-0.2 0-0.8-0.4-1.4-0.7-2.1-0.8-0.6-0.1-1.2-0.2-1.8-0.2-1 0-1.9 0.2-2.6 0.6s-1.4 0.9-1.9 1.6-0.9 1.5-1.1 2.4-0.4 1.9-0.4 3c0 2.3 0.5 4.1 1.4 5.4s2.4 1.9 4.3 1.9c0.6 0 1.3-0.1 2.1-0.2s1.5-0.4 2.2-0.8v-6.4c-0.5-0.1-1-0.2-1.3-0.2h-1.1z" fill="#fff"></path> <path d="m35.4 48.4c0.1 0 0.1 0.1 0 0l-0.2 0.3c-0.1 0.1-0.1 0.1-0.1 0-0.4-0.4-0.9-0.7-1.4-1-0.6-0.3-1.3-0.4-2.1-0.4h-0.9s-0.8 0.1-1.4 0.2v11.1c0 0.1 0 0.1-0.1 0.1h-0.3c-0.1 0-0.1 0-0.1-0.1v-10.9c0-0.2 0-0.3 0.1-0.4s0.2-0.2 0.4-0.2c0.4-0.1 0.8-0.1 1.2-0.2h1.1c0.9 0 1.6 0.1 2.3 0.4 0.4 0.3 1 0.6 1.5 1.1z" fill="#fff"></path> <path d="m40.9 59c-0.9 0-1.6-0.1-2.2-0.3s-1-0.5-1.4-0.8c-0.3-0.3-0.6-0.7-0.7-1.1s-0.2-0.8-0.2-1.2c0-0.7 0.1-1.3 0.4-1.8s0.6-0.9 1-1.2 0.9-0.5 1.4-0.6 1.1-0.2 1.6-0.2h3.8v-1.1c0-0.5 0-0.9-0.1-1.3s-0.3-0.7-0.5-1-0.6-0.5-1.1-0.7-1.1-0.2-1.8-0.2c-0.4 0-0.9 0-1.5 0.1-0.5 0.1-1.1 0.2-1.7 0.4-0.1 0-0.1 0-0.2-0.1l-0.1-0.2c0-0.1 0-0.1 0.1-0.2 0.4-0.2 0.9-0.3 1.5-0.4s1.2-0.2 1.8-0.2c1.3 0 2.3 0.3 3 0.8s1 1.4 1 2.5v7.8c0 0.1-0.1 0.2-0.2 0.3-0.7 0.2-1.3 0.4-2 0.5-0.5 0.1-1.2 0.2-1.9 0.2zm-0.2-6.8c-0.2 0-0.6 0-1 0.1s-0.9 0.2-1.3 0.5c-0.4 0.2-0.8 0.6-1.1 1s-0.5 1-0.5 1.8c0 0.6 0.1 1.1 0.4 1.5s0.6 0.7 1 0.9 0.8 0.4 1.3 0.4c0.5 0.1 0.9 0.1 1.3 0.1h0.7s0.6-0.1 1-0.1c0.4-0.1 0.7-0.1 1.1-0.2s0.7-0.2 1-0.3v-5.7h-3.9z" fill="#fff"></path> <path d="m52.3 59c-1.6 0-2.8-0.5-3.6-1.5s-1.2-2.5-1.2-4.4c0-0.8 0.1-1.6 0.3-2.4 0.2-0.7 0.5-1.4 0.9-2s0.9-1 1.6-1.4c0.6-0.3 1.4-0.5 2.2-0.5 0.5 0 1.1 0 1.8 0.1 0.6 0.1 1.2 0.3 1.8 0.5v-4.8c0-0.1 0-0.1 0.1-0.1h0.3c0.1 0 0.1 0 0.1 0.1v15.4c0 0.1 0 0.2-0.1 0.2-0.7 0.3-1.4 0.4-2.1 0.5-0.7 0.2-1.4 0.3-2.1 0.3zm0.3-11.7c-0.7 0-1.3 0.1-1.8 0.4-0.6 0.3-1 0.6-1.4 1.1s-0.7 1.1-0.9 1.8-0.3 1.5-0.3 2.4c0 1.1 0.1 2 0.3 2.7s0.5 1.3 0.9 1.7 0.8 0.7 1.4 0.9c0.5 0.2 1.1 0.2 1.7 0.2 0.5 0 1.1 0 1.7-0.1 0.7-0.1 1.4-0.2 2-0.5v-9.8c-0.8-0.3-1.5-0.5-2.2-0.6-0.6-0.1-1.1-0.2-1.4-0.2z" fill="#fff"></path> <path d="m67 45.7v12.8c0 0.1 0 0.2-0.1 0.2h-0.2-1.1-0.2s-0.1-0.1-0.1-0.2v-14.3c0-0.3 0.1-0.6 0.2-0.7 0.1-0.2 0.4-0.2 0.7-0.2h0.5c0.3 0 0.5 0.1 0.6 0.2s0.3 0.3 0.5 0.6l5.6 9.1 1.9 3.2h0.1v-12.9c0-0.1 0-0.2 0.1-0.2 0 0 0.1-0.1 0.2-0.1h1.1c0.1 0 0.2 0 0.2 0.1 0.1 0 0.1 0.1 0.1 0.2v14.2c0 0.3-0.1 0.6-0.2 0.7-0.1 0.2-0.4 0.2-0.7 0.2h-0.5c-0.3 0-0.5-0.1-0.6-0.2s-0.3-0.3-0.5-0.6l-5.8-9.4-1.8-2.7z" fill="#fff"></path> <path d="m89.9 52.9c0 2-0.4 3.5-1.3 4.5s-2.1 1.6-3.8 1.6c-1.6 0-2.9-0.5-3.7-1.5-0.9-1-1.3-2.5-1.3-4.5 0-1 0.1-1.8 0.4-2.6 0.2-0.8 0.6-1.4 1.1-1.9s1-0.9 1.6-1.2 1.3-0.4 2.1-0.4c1.6 0 2.9 0.5 3.8 1.6 0.7 1 1.1 2.5 1.1 4.4zm-1.6 0.1c0-0.6-0.1-1.2-0.2-1.8s-0.3-1.1-0.5-1.5c-0.3-0.4-0.6-0.8-1-1-0.5-0.3-1-0.4-1.7-0.4-0.6 0-1.1 0.1-1.6 0.4-0.4 0.3-0.8 0.6-1.1 1s-0.5 0.9-0.6 1.5-0.2 1.2-0.2 1.8c0 0.7 0.1 1.3 0.2 1.9s0.3 1.1 0.6 1.5 0.6 0.8 1.1 1c0.4 0.2 1 0.4 1.6 0.4 0.7 0 1.2-0.1 1.7-0.4 0.4-0.3 0.8-0.6 1.1-1.1 0.3-0.4 0.4-1 0.6-1.5-0.1-0.7 0-1.3 0-1.8z" fill="#fff"></path> <path d="m97.5 58c-0.1 0.3-0.2 0.5-0.3 0.7-0.1 0.1-0.3 0.2-0.6 0.2h-0.7c-0.3 0-0.4-0.1-0.6-0.2-0.1-0.1-0.3-0.3-0.4-0.7l-3.7-10.7c-0.1-0.1 0-0.2 0.2-0.2h1.2 0.2l0.1 0.1 2.3 6.6 1.1 3.4h0.1l1-3.3 2.3-6.7c0-0.1 0.1-0.2 0.3-0.2h1.2c0.1 0 0.2 0.1 0.1 0.2l-3.8 10.8z" fill="#fff"></path> <path d="m105.3 43.9c0 0.3-0.1 0.6-0.3 0.8s-0.5 0.3-0.8 0.3-0.6-0.1-0.8-0.3-0.3-0.5-0.3-0.8 0.1-0.6 0.3-0.8 0.5-0.3 0.8-0.3 0.6 0.1 0.8 0.3c0.2 0.3 0.3 0.5 0.3 0.8zm-0.3 14.6c0 0.1 0 0.2-0.1 0.2h-0.2-1-0.2c-0.1 0-0.1-0.1-0.1-0.2v-11c0-0.1 0-0.2 0.1-0.2 0 0 0.1-0.1 0.2-0.1h1c0.1 0 0.2 0 0.2 0.1 0 0 0.1 0.1 0.1 0.2v11z" fill="#fff"></path> <path d="m124.5 54.7c0 0.7-0.1 1.3-0.4 1.8s-0.6 1-1.1 1.4-1.1 0.6-1.7 0.8c-0.7 0.2-1.4 0.3-2.2 0.3-0.4 0-0.8 0-1.3-0.1-0.5 0-0.9-0.1-1.4-0.2s-1-0.2-1.5-0.4c-0.5-0.1-0.9-0.3-1.4-0.6-0.1-0.1-0.2-0.2-0.1-0.4l0.4-1c0.1-0.2 0.2-0.2 0.3-0.1 0.4 0.2 0.8 0.3 1.2 0.5 0.4 0.1 0.9 0.3 1.3 0.3 0.4 0.1 0.8 0.2 1.3 0.2 0.4 0 0.8 0.1 1.1 0.1 0.5 0 1-0.1 1.4-0.2s0.8-0.3 1.2-0.5c0.3-0.2 0.6-0.5 0.8-0.8s0.3-0.7 0.3-1.2c0-0.8-0.3-1.5-1-2s-1.6-1-3-1.4c-0.8-0.3-1.5-0.5-2.1-0.8s-1.1-0.6-1.5-0.9-0.7-0.7-0.9-1.1-0.3-0.9-0.3-1.5 0.1-1.1 0.3-1.6 0.5-0.9 1-1.3c0.4-0.4 0.9-0.7 1.6-0.8 0.6-0.2 1.3-0.3 2.1-0.3 0.7 0 1.5 0.1 2.2 0.2 0.8 0.1 1.5 0.4 2.2 0.7 0.1 0.1 0.2 0.2 0.1 0.3l-0.4 1c-0.1 0.1-0.2 0.2-0.3 0.1-0.8-0.3-1.4-0.5-2.1-0.7-0.6-0.1-1.2-0.2-1.8-0.2-0.9 0-1.7 0.2-2.3 0.7-0.6 0.4-0.9 1-0.9 1.7 0 0.4 0.1 0.8 0.2 1 0.2 0.3 0.4 0.5 0.7 0.8 0.3 0.2 0.7 0.4 1.2 0.6s1 0.4 1.7 0.6 1.3 0.5 1.9 0.8 1.1 0.6 1.5 0.9c0.4 0.4 0.8 0.8 1 1.3 0.6 0.7 0.7 1.3 0.7 2z" fill="#fff"></path> <path d="m135.4 57.7c0 0.3-0.1 0.4-0.3 0.5-0.7 0.3-1.4 0.5-2.1 0.6s-1.5 0.1-2.2 0.1c-0.9 0-1.7-0.1-2.3-0.3s-1.1-0.5-1.4-0.8c-0.4-0.3-0.6-0.7-0.7-1.2-0.1-0.4-0.2-0.9-0.2-1.4s0.1-1.1 0.3-1.5c0.2-0.5 0.5-0.9 0.9-1.3 0.4-0.3 0.9-0.6 1.5-0.8s1.3-0.3 2.1-0.3h2.9v-0.6c0-0.4 0-0.7-0.1-1s-0.2-0.6-0.4-0.8-0.5-0.4-0.9-0.5-0.8-0.2-1.4-0.2c-0.5 0-1 0.1-1.6 0.1-0.6 0.1-1.1 0.2-1.5 0.3h-0.2c-0.1 0-0.1-0.1-0.1-0.2l-0.2-0.8c0-0.2 0-0.3 0.2-0.3 0.3-0.1 0.5-0.2 0.9-0.3 0.3-0.1 0.6-0.1 1-0.2 0.3-0.1 0.7-0.1 1-0.1s0.7 0 0.9 0c1.4 0 2.5 0.3 3.2 0.9s1 1.6 1 2.8v7.3h-0.3zm-1.6-4.8h-2.8c-0.3 0-0.6 0-1 0.1-0.4 0-0.7 0.2-1 0.3-0.3 0.2-0.6 0.4-0.8 0.8-0.2 0.3-0.3 0.8-0.3 1.4 0 0.4 0.1 0.8 0.3 1.1s0.4 0.5 0.7 0.7 0.6 0.3 1 0.4 0.7 0.1 1.1 0.1h0.5s0.5 0 0.8-0.1c0.3 0 0.6-0.1 0.8-0.1 0.3-0.1 0.6-0.1 0.8-0.2v-4.5h-0.1z" fill="#fff"></path> <path d="m137.9 53.1c0-0.8 0.1-1.6 0.3-2.4s0.5-1.4 1-2c0.4-0.6 1-1 1.6-1.4 0.7-0.3 1.4-0.5 2.4-0.5 0.4 0 0.8 0 1.3 0.1 0.5 0 1 0.2 1.5 0.3v-4.4c0-0.1 0-0.2 0.1-0.2 0 0 0.1-0.1 0.2-0.1h1c0.1 0 0.2 0 0.2 0.1 0 0 0.1 0.1 0.1 0.2v15c0 0.2-0.1 0.3-0.2 0.3-0.8 0.3-1.5 0.5-2.3 0.6s-1.5 0.1-2.2 0.1c-0.9 0-1.7-0.1-2.3-0.4s-1.2-0.7-1.6-1.2-0.7-1.1-0.9-1.8c-0.1-0.6-0.2-1.4-0.2-2.3zm1.7 0c0 0.8 0.1 1.5 0.3 2.1s0.4 1 0.7 1.4 0.7 0.6 1.2 0.8c0.4 0.2 0.9 0.2 1.5 0.2h0.7c0.2 0 0.5-0.1 0.7-0.1s0.5-0.1 0.7-0.2c0.2 0 0.5-0.1 0.7-0.2v-8.4c-0.6-0.2-1.1-0.3-1.6-0.4-0.4 0-0.8-0.1-1.2-0.1-0.5 0-1 0.1-1.5 0.3s-0.8 0.5-1.2 0.9c-0.3 0.4-0.6 0.9-0.8 1.5-0.1 0.7-0.2 1.4-0.2 2.2z" fill="#fff"></path> <path d="m45.7 40.3c-10.1 0-13.9-4.6-17.1-8.6-2.3-2.8-4.3-5.3-8.3-5.4-0.2 0-0.3-0.1-0.4-0.3s0-0.3 0.1-0.5 3.2-3.7 6.3-3.8c2.6-0.1 5.4 0.9 8.1 1.9 2.2 0.8 4.3 1.6 5.9 1.6v0.9c-1.8 0-3.9-0.8-6.2-1.6-2.6-1-5.3-1.9-7.7-1.9-2 0.1-4 1.9-5.1 2.9 3.7 0.5 5.8 3 8 5.7 4.8 5.9 10.8 13.2 38.2 3.7 3.2-1.1 8.2-0.4 11.6 0.4-3.9-2.4-6.8-4.6-8.2-7-1 0.5-3.7 1.8-6.2 1.8-1.3 0-2.5-0.1-3.5-0.4-1.1 0.7-2.2 1.2-3.3 1.4-1.8 0.4-3.3 0.1-4.5-0.9-0.1-0.1-0.2-0.2-0.2-0.3s0.1-0.2 0.1-0.3c2.4-2.1 4.4-1.6 6.8-1 0.3 0.1 0.6 0.1 0.8 0.2 3.9-2.5 8.3-7.6 10.9-14-2.3-0.3-11.3-1.2-19.6 1.7-0.9 1.5-2.2 3.1-4.1 4.6-2.6 2.2-5.9 4-6.8 3.1-0.4-0.4-0.2-1.1 0.6-2 2.7-3.1 6.2-5.1 9.8-6.4 1.3-2.8 1.2-5.4 0.3-7.2-2.4 1-13.2 6-16.5 14.7l-0.8-0.3c3.7-9.6 16-14.8 17.4-15.4 0.2-0.1 0.4 0 0.5 0.2 1.1 1.9 1.4 4.6 0.1 7.5 9.5-3 19.6-1.4 19.7-1.3 0.1 0 0.2 0.1 0.3 0.2s0.1 0.2 0 0.4c-2.2 5.9-6.4 11.4-10.6 14.4 0.8 0.1 1.6 0.2 2.4 0.2 2.8-0.1 6.2-1.9 6.2-1.9 0.1-0.1 0.2-0.1 0.3 0 0.1 0 0.2 0.1 0.3 0.2 1.6 3.1 6.3 6.1 11.2 8.8 0.2 0.1 0.3 0.4 0.2 0.6s-0.3 0.3-0.6 0.2c-2-0.8-10.3-2.9-14.4-1.4-9.6 3.3-16.7 4.6-22 4.6zm8.6-10.4c0.9 0.6 2 0.7 3.3 0.4 0.7-0.2 1.4-0.5 2.2-0.9-2.1-0.5-3.7-0.9-5.5 0.5zm-3.5-12.9c-3.1 1.3-6 3.1-8.3 5.8-0.5 0.5-0.6 0.8-0.6 0.9 0.2 0.1 2.2-0.4 5.6-3.2 1.4-1.2 2.5-2.4 3.3-3.5z" fill="#fff"></path> <path d="m7.6 19.5c7.6 0.1 14.3 5.5 15.7 13.3l-0.9 0.1c-1.3-7.4-7.5-12.9-14.8-13v-0.4z" fill="#fff"></path> <path d="m14 25.1c1.8-1.2 3.7-1.4 3.7-1.4s-0.9 1.8-2.6 3c-1.8 1.2-3.7 1.4-3.7 1.4s0.9-1.8 2.6-3z" fill="#fff"></path> <path d="m16.8 19.9c0-2.1 1-3.9 1-3.9s1 1.7 1 3.9c0 2.1-1 3.9-1 3.9s-1-1.8-1-3.9z" fill="#fff"></path> <path d="m10.9 22.9c1.4-1.3 3.1-1.7 3.1-1.7s-0.5 1.7-1.9 3-3.1 1.7-3.1 1.7 0.5-1.7 1.9-3z" fill="#fff"></path> <path d="m12.6 17.8c-0.3-1.9 0.4-3.6 0.4-3.6s1.1 1.4 1.4 3.3-0.4 3.6-0.4 3.6-1.1-1.4-1.4-3.3z" fill="#fff"></path> <path d="m7.3 21.6c1.1-1.2 2.5-1.7 2.5-1.7s-0.3 1.5-1.4 2.7-2.5 1.7-2.5 1.7 0.3-1.5 1.4-2.7z" fill="#fff"></path> <path d="m8.3 17.1c-0.4-1.6 0-3 0-3s1.1 1.1 1.5 2.7 0 3 0 3-1.1-1.1-1.5-2.7z" fill="#fff"></path> <path d="m5.3 18.9c1.6 0 2.8 0.8 2.8 0.8s-1.3 0.7-2.9 0.6c-1.6 0-2.8-0.8-2.8-0.8s1.3-0.7 2.9-0.6z" fill="#fff"></path> </svg> 