<?xml version="1.0" encoding="utf-8"?>
<!-- Generator: Adobe Illustrator 26.0.3, SVG Export Plug-In . SVG Version: 6.00 Build 0)  -->
<svg version="1.1" id="Layer_1" xmlns="http://www.w3.org/2000/svg" xmlns:xlink="http://www.w3.org/1999/xlink" x="0px" y="0px"
	 width="41.6px" height="100px" viewBox="0 0 41.6 100" style="enable-background:new 0 0 41.6 100;" xml:space="preserve">
<style type="text/css">
	.st0{fill:#FFFFFF;}
</style>
<path class="st0" d="M16.2,79.4c-0.6,0-0.7-0.2-0.5-1c0-0.1,0.9-3.5,2-8.4c8.3-1.6,10.4-9,10.4-12.3c0-3.4-1.7-5.7-5.1-9.7l0,0
	c1.9-7.9,3.5-14.3,3.5-14.3h-5.4c0.4,0.7,0.5,1.5,0.3,2.2c-0.1,0.3-0.7,3.5-1.7,8l-1.5-1.9c0.9-3.8,1.6-7.3,1.7-7.9
	c0.4-1.6,1-3.2,1.9-4.6c0.1-0.2,1.9-2.7,4.2-5.9c2.2,1.1,4,2.9,5.2,5.1l1-4c-1.5-1.2-3.2-2.2-5-2.8c4-5.6,8.7-12.3,9.4-13.1
	c0.4-0.7,1.1-1.2,1.8-1.5h-3.8l-9.1,14.1c-1.4-0.3-2.9-0.5-4.3-0.5c-1.3,0-2.7,0.2-3.9,0.6L13.1,7.5H9.4c0.7,0.7,1.2,1.7,1.4,2.7
	c0.1,0.5,1.9,7.4,3.3,12.9c-3.6,2.2-5.9,6.2-5.9,10.4c0,2.8,1.2,5.4,3.2,7.3c0.3,0.3,1.4,1.5,2.8,3c-0.8,4.3-1.5,8.4-1.6,9.1
	c-0.3,1.6-1.1,1.9-1.1,1.9h5c-0.5-0.6-0.5-1.9-0.3-2.8c0-0.2,0.5-2.3,1.1-5l1.5,1.7c-1.4,6.3-3,13.7-4.3,19.6
	c-3.3-0.1-8.3-3-10.1-7.8l-1.2,4.6c3,2.8,6.8,4.6,10.9,4.9c-1.1,4.9-1.8,8.4-1.9,8.7c-0.1,0.7-0.5,1.4-1,1.9h23.8l2.3-3.8
	c0,0-4.4,1-10.5,1.8C23.2,79.3,19.7,79.5,16.2,79.4 M21,22.5c1.2,0,2.5,0.2,3.7,0.7L20,30.4l-2.2-7.3C18.8,22.7,19.9,22.5,21,22.5
	 M11.8,31.6c0-2.5,1-4.8,2.8-6.5c0.7,2.6,1.2,4.6,1.3,5c0.3,1,0.3,2.1,0.1,3.1c0,0.2-0.4,2.4-0.9,5.2C13.5,36.8,11.8,34.2,11.8,31.6
	 M22,52.8c1.8,2,2.8,4.5,2.9,7.2c0.1,3.9-2.5,7.3-6.2,8.4c-0.2,0.1-0.4,0.1-0.6,0.1C19.3,63.8,20.6,58.1,22,52.8L22,52.8"/>
<path class="st0" d="M8.7,92.4H7.5v-4.6h1.1c0.9,0,1.5,0.4,1.5,1.2c0,0.5-0.3,0.9-0.7,1.1l0,0c0.5,0.1,0.9,0.6,0.9,1.1
	C10.3,92,9.7,92.4,8.7,92.4 M8.6,88.1H7.9v1.7h1c0.5-0.2,0.7-0.5,0.7-0.9S9.2,88.1,8.6,88.1 M8.8,90.2H7.9V92h0.8
	c0.8,0,1.2-0.3,1.2-0.9C9.9,90.4,9.5,90.2,8.8,90.2"/>
<polygon class="st0" points="13.2,92.4 13.2,87.8 15.5,87.8 15.5,88.2 13.6,88.2 13.6,89.8 15.4,89.8 15.4,90.2 13.6,90.2 13.6,92 
	15.6,92 15.6,92.4 "/>
<path class="st0" d="M21.6,92.4L21,90.7h-2l-0.6,1.6h-0.5l1.9-4.7h0.3l1.9,4.7H21.6z M20,88.3L20,88.3l-0.9,2.1h1.7L20,88.3z"/>
<path class="st0" d="M24.4,91v-3.3h0.4V91c-0.1,0.6,0.4,1.2,1,1.2c0.6,0.1,1.2-0.4,1.2-1c0-0.1,0-0.1,0-0.2v-3.2h0.4V91
	c0.1,0.8-0.5,1.4-1.3,1.5c-0.1,0-0.2,0-0.3,0c-0.8,0.1-1.4-0.4-1.5-1.2C24.4,91.2,24.4,91.1,24.4,91"/>
<polygon class="st0" points="31.3,92.4 31.3,88.2 30,88.2 30,87.8 33.1,87.8 33.1,88.2 31.8,88.2 31.8,92.4 "/>
<polygon class="st0" points="35.7,92.4 35.7,87.8 36.6,87.8 37.1,87 37.6,87 36.9,87.8 37.9,87.8 37.9,88.2 36.1,88.2 36.1,89.8 
	37.8,89.8 37.8,90.2 36.1,90.2 36.1,92 38.1,92 38.1,92.4 "/>
</svg>
